<?xml version="1.0" encoding="UTF-8" standalone="no"?>

<svg
   version="1.1"
   x="0px"
   y="0px"
   width="85"
   height="85"
   viewBox="0 0 85 85"
   enable-background="new 0 0 86 86"
   xml:space="preserve"
   id="svg8"
   xmlns="http://www.w3.org/2000/svg"
   xmlns:svg="http://www.w3.org/2000/svg"><defs
   id="defs8" />

<g
   id="Layer_1"
   style="display:inline"
   transform="translate(-0.5,-0.5)">
	
		<linearGradient
   id="SVGID_1_"
   gradientUnits="userSpaceOnUse"
   x1="746.14911"
   y1="91.0476"
   x2="832.42432"
   y2="4.6216998"
   gradientTransform="matrix(0,0.9756,0.9739,0,-3.5862,-727.0281)">
		<stop
   offset="0.0054"
   style="stop-color:#f7d6b3;stop-opacity:1;"
   id="stop1" /><stop
   offset="0.50269997"
   style="stop-color:#777f81;stop-opacity:1;"
   id="stop9" />
		<stop
   offset="1"
   style="stop-color:#f6ffe4;stop-opacity:1;"
   id="stop2" />
	</linearGradient>
	<path
   fill="url(#SVGID_1_)"
   d="M 0.5,84.083 V 43 C 0.5,19.527 19.529,0.5 43,0.5 h 41.083 c 0.783,0 1.417,0.634 1.417,1.417 V 43 C 85.5,66.473 66.471,85.5 43,85.5 H 1.917 C 1.134,85.5 0.5,84.866 0.5,84.083 Z"
   id="path2"
   style="fill:url(#SVGID_1_)" />
	
		<linearGradient
   id="SVGID_2_"
   gradientUnits="userSpaceOnUse"
   x1="312.53271"
   y1="9.6047001"
   x2="249.65469"
   y2="72.482697"
   gradientTransform="matrix(0,-1,-1,0,84.05,324.1)">
		<stop
   offset="0.0054"
   style="stop-color:#686a6a;stop-opacity:1;"
   id="stop3" />
		<stop
   offset="1"
   style="stop-color:#181b1d;stop-opacity:1;"
   id="stop4" />
	</linearGradient>
	<path
   fill="url(#SVGID_2_)"
   d="m 73.023,10.975 c 1.105,0 2.002,0.895 2.002,2 0,0 0,29.435 0,30.025 0,17.687 -14.299,32.025 -32,32.025 -0.345,0 -30.048,0 -30.048,0 -1.105,0 -2.002,-0.895 -2.002,-2 0,0 0,-29.412 0,-30.025 0,-17.686 14.349,-32.025 32.05,-32.025 1.472,0 29.998,0 29.998,0 z"
   id="path4"
   style="display:inline;fill:url(#SVGID_2_)" />
	
	<linearGradient
   id="SVGID_4_"
   gradientUnits="userSpaceOnUse"
   x1="19.5861"
   y1="20.022301"
   x2="58.965801"
   y2="59.402">
		<stop
   offset="0"
   style="stop-color:#FFFFFF"
   id="stop7" />
		<stop
   offset="1"
   style="stop-color:#F3EDD1"
   id="stop8" />
	</linearGradient>
	
<g
   id="paperclip"
   transform="translate(11.2295,12.056)">
	
	<path
   style="fill:#ffffff"
   d="m 30.42,52.992 c -0.256,0 -0.512,-0.098 -0.707,-0.293 -0.391,-0.391 -0.391,-1.023 0,-1.414 L 49.788,31.21 c 4.639,-4.64 4.639,-12.189 0,-16.829 -2.247,-2.248 -5.235,-3.485 -8.414,-3.485 -3.179,0 -6.166,1.238 -8.414,3.485 L 12.913,34.659 c -3.519,3.52 -3.519,9.24 -0.003,12.758 0.39,0.391 0.39,1.023 0,1.414 -0.39,0.391 -1.024,0.391 -1.415,0 -4.294,-4.297 -4.294,-11.287 0,-15.582 L 31.543,12.971 c 2.628,-2.629 6.119,-4.075 9.832,-4.075 3.713,0 7.203,1.446 9.828,4.071 5.418,5.42 5.418,14.238 0,19.657 L 31.127,52.699 c -0.195,0.196 -0.451,0.293 -0.707,0.293 z"
   id="path1" />
	<path
   style="opacity:0.6;fill:#ffffff"
   d="m 19.449,51.431 c -2.718,0 -5.436,-1.031 -7.505,-3.093 -0.391,-0.39 -0.392,-1.022 -0.002,-1.414 0.39,-0.392 1.023,-0.394 1.415,-0.002 3.359,3.346 8.827,3.348 12.188,0 l 19.35,-19.284 c 1.133,-1.128 1.757,-2.629 1.757,-4.228 0,-1.599 -0.624,-3.101 -1.757,-4.229 -2.343,-2.335 -6.155,-2.335 -8.496,0 L 16.972,38.538 c -0.391,0.39 -1.024,0.39 -1.415,-0.002 -0.39,-0.392 -0.389,-1.024 0.002,-1.414 L 34.985,17.765 c 3.121,-3.11 8.199,-3.11 11.32,0 1.512,1.506 2.345,3.511 2.345,5.646 0,2.134 -0.833,4.139 -2.345,5.645 l -19.35,19.282 c -2.07,2.061 -4.788,3.093 -7.506,3.093 z"
   id="path2-6" />
</g></g>
</svg>
